<svg width="172" height="172" viewBox="0 0 172 172" fill="none" xmlns="http://www.w3.org/2000/svg">
    <path d="M43.421 124.929L20.3623 89.9232L21.3208 121.905L4.83749 122.474L5.02562 47.0795H31.4169C37.3204 47.0795 42.3729 49.1612 46.5654 53.3246C50.7579 57.4879 52.8542 62.4965 52.8542 68.3679C52.8542 73.2875 51.376 77.6199 48.4287 81.374C45.4725 85.1282 41.6831 87.6636 37.0427 88.9891L55.9 117.074L43.421 124.929ZM29.6073 76.4011C31.8917 76.4011 33.7998 75.6449 35.3227 74.1326C36.8456 72.6202 37.6429 70.6987 37.7056 68.359C37.6429 66.0905 36.8456 64.1956 35.3227 62.6833C33.7998 61.1709 31.8917 60.3792 29.6073 60.3169H20.3623V76.4011H29.6073Z"
          fill="#E4592C"/>
    <path d="M87.6215 113.863C79.4873 113.863 72.5715 110.945 66.8561 105.109C61.1406 99.273 58.2829 92.2629 58.2829 84.0606C58.2829 75.8673 61.1406 68.8661 66.8561 63.0569C72.5715 57.2566 79.4963 54.3565 87.6215 54.3565C94.4836 54.4188 100.575 56.5983 105.914 60.8862C111.119 65.1742 114.523 70.5652 116.109 77.0594C116.745 79.3902 117.059 81.7299 117.059 84.0606L74.6677 92.9568C77.9106 97.6895 82.2286 100.056 87.6215 100.056C90.4792 100.056 93.1309 99.3175 95.5765 97.8318C98.0221 96.3551 99.9392 94.2823 101.337 91.6312L113.628 97.8763C111.021 102.858 107.401 106.772 102.77 109.61C98.1296 112.439 93.0771 113.863 87.6215 113.863ZM72.5715 80.5645L100.199 74.7909C98.7388 72.7092 96.8665 71.0723 94.5821 69.8713C92.2977 68.6704 89.9775 68.0743 87.6304 68.0743C84.1367 68.0743 80.9117 69.2575 77.9644 71.6239C74.9992 73.9902 73.1986 76.9615 72.5715 80.5645Z"
          fill="#E4592C"/>
    <path d="M155.633 116.131L142.205 97.2091L129.34 115.749L118.196 108.089L133.918 85.484L118.581 63.822L129.726 56.0645L142.106 73.5632L156.018 53.6003L167.163 61.2599L150.491 85.3862L166.777 108.374L155.633 116.131Z"
          fill="#E4592C"/>
</svg>
