<svg width="40" height="40" viewBox="0 0 40 40" fill="none" xmlns="http://www.w3.org/2000/svg">
<path d="M10.0979 29.0534L4.73542 20.9124L4.95833 28.35L1.125 28.4824L1.16875 10.9487H7.30625C8.67917 10.9487 9.85417 11.4328 10.8292 12.4011C11.8042 13.3693 12.2917 14.5341 12.2917 15.8995C12.2917 17.0436 11.9479 18.0511 11.2625 18.9242C10.575 19.7973 9.69375 20.3869 8.61458 20.6952L13 27.2266L10.0979 29.0534ZM6.88542 17.7677C7.41667 17.7677 7.86042 17.5919 8.21458 17.2402C8.56875 16.8884 8.75417 16.4416 8.76875 15.8975C8.75417 15.3699 8.56875 14.9292 8.21458 14.5775C7.86042 14.2258 7.41667 14.0417 6.88542 14.0272H4.73542V17.7677H6.88542Z" fill="#919EAB" fill-opacity="0.32"/>
<path d="M20.3771 26.4797C18.4854 26.4797 16.8771 25.8011 15.5479 24.4439C14.2188 23.0868 13.5542 21.4565 13.5542 19.549C13.5542 17.6436 14.2188 16.0154 15.5479 14.6644C16.8771 13.3155 18.4875 12.6411 20.3771 12.6411C21.9729 12.6555 23.3896 13.1624 24.6313 14.1596C25.8417 15.1568 26.6333 16.4105 27.0021 17.9208C27.15 18.4628 27.2229 19.007 27.2229 19.549L17.3646 21.6179C18.1188 22.7185 19.1229 23.2688 20.3771 23.2688C21.0417 23.2688 21.6583 23.0971 22.2271 22.7516C22.7958 22.4082 23.2417 21.9261 23.5667 21.3096L26.425 22.7619C25.8188 23.9205 24.9771 24.8308 23.9 25.4908C22.8208 26.1487 21.6458 26.4797 20.3771 26.4797ZM16.8771 18.7359L23.3021 17.3932C22.9625 16.9091 22.5271 16.5285 21.9958 16.2492C21.4646 15.9699 20.925 15.8312 20.3792 15.8312C19.5667 15.8312 18.8167 16.1064 18.1313 16.6567C17.4417 17.207 17.0229 17.898 16.8771 18.7359Z" fill="#919EAB" fill-opacity="0.32"/>
<path d="M36.1938 27.0073L33.0708 22.6068L30.0792 26.9183L27.4875 25.137L31.1438 19.88L27.5771 14.8423L30.1688 13.0383L33.0479 17.1077L36.2833 12.4652L38.875 14.2465L34.9979 19.8573L38.7854 25.2032L36.1938 27.0073Z" fill="#919EAB" fill-opacity="0.32"/>
</svg>
